<svg id="Layer_1" data-name="Layer 1" xmlns="http://www.w3.org/2000/svg" viewBox="0 0 220 56"><defs><style>.cls-1{fill:#177432;fill-rule:evenodd;}</style></defs><path class="cls-1" d="M219.92,32.31l-.29-.31c0-.33,0-1,.15-.86-.2-1.23-.13.21-.32-.5.27-1.59-.13-4.37.35-4.73-.23-.57-.18,1.52-.33-.18.5-.48-.09-1.95.14-3.4.26.45.12,1.82.36.37-.44-.87.09-2.82,0-4-.35-.06-.15-2.66-.26-4.7a12,12,0,0,0,.15-2.12c0-.61.05-1.28.08-1.92a11.53,11.53,0,0,0-.07-1.82l.06.05a6.33,6.33,0,0,1-.71-1.45,8.55,8.55,0,0,0-1.27-2c.22-.07.46.1,1,.78a8.56,8.56,0,0,0-.86-1.21c-.16-.11-.32-.24-.55-.42s-.48-.42-.88-.7l.47.06a8.63,8.63,0,0,0-2.73-1.57,15.79,15.79,0,0,0-3.53-.82c-.08.12.43.28.59.48s.08.11,0,.15a9.39,9.39,0,0,0-1.19-.08h-.17c.05-.08.19-.14.56-.15a11.91,11.91,0,0,1-1.28,0c.36-.07.7-.15,1.07-.2-1.16-.11-.6.17-1.52.15,0-.18-.68-.13-.54-.27a10.5,10.5,0,0,0,1.14,0,15.78,15.78,0,0,1-2.69-.27c.09.1,0,.23-.75.26-1.95,0-.67-.22-1.81-.31-.47.13-1.71,0-1.75.26a1.84,1.84,0,0,1-.89-.19c-1,.11-4.72,0-3.58.31l.26,0h-.17c-3.31.26-6.87-.15-10.16,0V.86c-2,.1-4.36.06-5.76.24-.58,0-1.37-.16-1.12-.26a22.67,22.67,0,0,1-3.84,0c1.51-.15-.52-.14,1.55-.11a21,21,0,0,0-4.48,0c.71-.22-1.47-.28-2.39-.22l1.36.17c-1,0-2,0-2.87,0l.5-.3c-4-.36-7.19.62-10.22,0-1.05.21,2.16.15,1.22.39-1.83,0-3.74-.46-4.32-.46-2.51-.17-2.34.43-5,.32.34.1.66.38-1.31.48S149.14.71,150.3.62c.44,0,.65,0,.63.07.59,0,1.37-.09.65-.2l-.24.1c-.91-.1-3.44-.09-2.84-.27-1.39.1-.6.18.43.23-2.35-.15-3.67,0-6.1-.11.39.06.74.19.36.18-3.55-.13-1.56.21-4,.25-1.37-.16.49-.38-1.93-.25-1.48-.11-.32-.28.27-.36a35.06,35.06,0,0,1-5.38-.18L133.34,0c-.69.05-1.26.05-1.84.05l.66.21c-.68,0-1.26,0-1.25-.13-.7.14.54.36-.85.54-.91-.1-2.78.12-3.09-.16,2.86.09-.32-.28,2.11-.33a12.37,12.37,0,0,1-1.73,0c-.1,0,.1-.06.29-.08-2.74-.25-1.26.32-4.1.31.36-.15-.66-.3-1.12-.26,1.14,0,.55.26-.5.38A20.39,20.39,0,0,0,119,.61l1.08.06a11.58,11.58,0,0,1-2.54.18c-.11-.12,1.15-.08.7-.13-1.41.27-3.19-.29-5.15-.1-.91-.11-.09-.3-.89-.37-2.2.2-2.38-.22-4.7,0,.67.21.79.16-.84.37l3.8-.15L108,.73c1.15,0,2.42-.14,3.11-.1-1.16.17-1,.12-.49.29-1.57-.31-3.12.19-4.93,0l0-.53C103,.14,100.9.64,97.36.51L98.5.6a24,24,0,0,1-3.34.11c.11-.17-.61-.24-1.1-.35.06.13-2.59,0-2.92.34L89.56.47c-2.86-.09-3.26.5-6,.44C84.37.72,83.12.6,85,.46a5.35,5.35,0,0,0-1.76.09c-.54-.11-2.55.23-3.4.07a3.93,3.93,0,0,1-1.54.24c-.07,0,0,0,0-.06-.21.07-1.51.11-.68.29-2.83-.55-7.91,0-10.37-.43-2,.06-4.42.11-6.24.13.11-.06,0-.09.35-.07-2.51-.17-1.55.5-4.4.32-1.46-.28,1.51-.15.6-.26C57.11.2,54.06.86,52.13.52l.47,0c-1.47-.2-3.59.21-6,.17,0,0,.12-.05,0-.08a65.42,65.42,0,0,1-7.06.47c.72-.23,1-.12.61-.35-1,0,.3.37-1.76.43A9.08,9.08,0,0,1,36.05.66l2,0c-1-.31-2.52,0-3.55,0l.13-.14c-3,0-3,.39-6.24.37l.34.11c-1.76.34-1.47-.2-3.22.06L24.93.65c-1.16.08-4.06.34-6.14.4C20,.79,22.4.66,23.9.5a34.66,34.66,0,0,0-4.5.2A8.52,8.52,0,0,1,20.91.64a29.79,29.79,0,0,1-5.55.4c.2-.34-1.29-.38-3-.4-.87,0-1.79,0-2.72,0S7.94.82,7.45.83A11.54,11.54,0,0,0,2.19,4.62a8.57,8.57,0,0,0-1.47,3A8,8,0,0,0,.45,9.31c0,.6,0,1.07,0,1.63.57-1.53,0,1.27.61,1a8.71,8.71,0,0,1,0,1.48l0-.21c0,.09,0,.14,0,.22H1L.67,16.48c-.17.72-.13-1-.26-.87,0,2.21-.25.93-.41,2.39.21-.3.3.76.22,2l.27-1.77C.81,21.33,0,20.92.31,24L.12,23c.11,1.6,0,5.88.48,7.45-.07.28-.23.65-.28,0-.07,3.81.51,8.49.22,11.45L.39,41.6a8,8,0,0,1,.13,2.13c-.06,0-.15-.29-.16,0a17.86,17.86,0,0,1,.19,2.87c-.07-.31-.13-.58-.18-.84a13.7,13.7,0,0,0,0,1.43,7.66,7.66,0,0,0,1.35,3.5,11.2,11.2,0,0,0,3.62,3.11c-.12.16.53.73,1.54,1.2a9.34,9.34,0,0,0,3.26.81l-.07.06c.72,0,1.22,0,1.79,0l1.6,0c1,0,2-.08,3-.13,2-.11,3.88-.24,6.06-.32,2.71.43,9.18.18,13.54.42-.67-.07.11-.31.88-.34,1,.07,2.83-.28,2.67.08h-.37c.77.35,2.88.25,4.52.26l.27-.47c4.29.69,11.24-.25,13.58.37,1-.12,2.32-.12,3.35-.24l-.06.25c2.87.07,4.31.1,7.85,0l-.72.18c2,0,2.53-.73,4.37-.74l.56.37c3.49,0,7,.33,10.47,0-.06.05-.16.16-.73.18,1.65,0,6.36.25,5.76-.26,0,.33,3.6,0,5.49-.12l-.29.25a15.75,15.75,0,0,1,3.86-.49c.53,0,.46.2-.24.13,1.76.13,1.37-.23,3.5-.1l-.8.16a8.25,8.25,0,0,0,2.66-.25,11.62,11.62,0,0,1,3.69.28,5.83,5.83,0,0,1,2.3-.25c.14.08-.25.14-.44.16,3,.17,4.49-.29,6.56,0,0,.08.18.12.35.15-2.4,0-4.33,0-4.15,0,0,.23,1.94.27.4.58a42.43,42.43,0,0,1,6.1-.44l.25.08-.19,0a7.63,7.63,0,0,0,1.19,0c.6,0,1,.07,1.56.07a16.08,16.08,0,0,0,3.19.11c-.08-.25,1.18-.21,0-.42.15,0-.18,0-.82,0l-.42,0,.07,0h-2.4a8.52,8.52,0,0,1,2.63-.09c.49-.16,1-.33,1.35-.4,1.32.34,3.86.53,4.22.75,3-.14,7-.09,8.8-.56a2.48,2.48,0,0,1,1.28.2c-.49,0-1.06,0-1.32.11,1.67-.12,5,0,5.36-.37,2.12.14-1.18.3,1.72.25l-.39.1c5.71.52,9.28-.84,15.62-.17a2.8,2.8,0,0,1-.75-.11c7.22.29,14.88-.28,22,.19A12.67,12.67,0,0,0,183.9,55l.44.27,2.11-.31c3-.22,5.19.66,9,.23L195,55c1.36,0,4.31-.1,4.09.1a1.9,1.9,0,0,1,1-.09l.05.14L203.4,55c2.6.1-.4.56,3.38.58,1.41-.05,4-.4,3.48-.5s-1.45-.09-1.49-.23l1.29-.07a.35.35,0,0,1,.05-.08h.2c5,0,9.11-3.74,9.11-8.36v-.83l.08.14-.08-.42V43.37a1.1,1.1,0,0,1,.14.58c.19-1.31-.15-1.16.07-2.28,0-.13.06-.07.07,0l-.12-1.28c.09.25.29-.21.23.58.23-2.3-.3-3.71,0-4.58l0,.19c-.1-2.38-.22-1.37-.42-1.71V33.42ZM121.67,55.63l.07,0a.73.73,0,0,1-.25.12,2,2,0,0,1-.95-.06Zm97.8-14.47a.91.91,0,0,1-.05.17v-.76C219.44,40.76,219.45,41,219.47,41.16Z"/></svg>